<?xml version="1.0" encoding="UTF-8"?>
<svg xmlns="http://www.w3.org/2000/svg" xmlns:xlink="http://www.w3.org/1999/xlink" version="1.1" viewBox="0 0 600 600">
  <!-- Generator: Adobe Illustrator 29.4.0, SVG Export Plug-In . SVG Version: 2.1.0 Build 152)  -->
  <defs>
    <style>
      .st0, .st1, .st2 {
        fill: none;
      }

      .st1, .st2, .st3 {
        stroke: #e5d7ea;
      }

      .st1, .st3 {
        stroke-miterlimit: 10;
        stroke-width: .25px;
      }

      .st4 {
        fill: url(#linear-gradient1);
      }

      .st2 {
        stroke-linecap: round;
        stroke-linejoin: round;
        stroke-width: 7px;
      }

      .st3 {
        fill: #e5d7ea;
      }

      .st5 {
        fill: url(#linear-gradient);
      }

      .st6 {
        clip-path: url(#clippath);
      }
    </style>
    <linearGradient id="linear-gradient" x1="-4.99" y1="793" x2="-3.82" y2="791.83" gradientTransform="translate(2555 406017) scale(512 -512)" gradientUnits="userSpaceOnUse">
      <stop offset="0" stop-color="#10182b"/>
      <stop offset=".5" stop-color="#592c86"/>
      <stop offset="1" stop-color="#10182b"/>
    </linearGradient>
    <clipPath id="clippath">
      <rect class="st0" x="233.25" y="233.25" width="133.5" height="133.5"/>
    </clipPath>
    <linearGradient id="linear-gradient1" x1="-4.99" y1="793" x2="-3.82" y2="791.83" xlink:href="#linear-gradient"/>
  </defs>
  <g id="BG">
    <rect class="st5" width="600" height="600"/>
  </g>
  <g id="QR">
    <g>
      <path class="st3" d="M195.69,31.52c0-1.8-.64-3.34-1.91-4.61-1.27-1.27-2.81-1.91-4.61-1.91h-5.93c-1.8,0-3.34.64-4.61,1.91-1.27,1.27-1.91,2.81-1.91,4.61v5.93c0,.1.01.25.04.44h-.04v6.07h18.97v-6.07h-.04c.03-.2.04-.35.04-.44v-5.93Z"/>
      <path class="st3" d="M252.59,37.45c0,1.8-.64,3.34-1.91,4.61-1.27,1.27-2.81,1.91-4.61,1.91h-5.93c-1.8,0-3.34-.64-4.61-1.91-1.27-1.27-1.91-2.81-1.91-4.61v-5.93c0-1.8.64-3.34,1.91-4.61,1.27-1.27,2.81-1.91,4.61-1.91h5.93c1.8,0,3.34.64,4.61,1.91,1.27,1.27,1.91,2.81,1.91,4.61v5.93Z"/>
      <path class="st3" d="M290.52,31.52v-6.52h-12.45c-1.8,0-3.34.64-4.61,1.91-1.27,1.27-1.91,2.81-1.91,4.61v12.45h18.97v-12.45Z"/>
      <rect class="st3" x="290.52" y="25" width="18.97" height="18.97"/>
      <path class="st3" d="M321.93,25h-12.45v18.97h12.45c1.8,0,3.34-.64,4.61-1.91,1.27-1.27,1.91-2.81,1.91-4.61v-5.93c0-1.8-.64-3.34-1.91-4.61-1.27-1.27-2.81-1.91-4.61-1.91Z"/>
      <path class="st3" d="M404.31,31.52v-6.52h-12.45c-1.8,0-3.34.64-4.61,1.91-1.27,1.27-1.91,2.81-1.91,4.61v5.93c0,1.8.64,3.34,1.91,4.61,1.27,1.27,2.81,1.91,4.61,1.91h12.45v-12.45Z"/>
      <path class="st3" d="M423.28,31.52c0-1.8-.64-3.34-1.91-4.61-1.27-1.27-2.81-1.91-4.61-1.91h-12.45v18.97h18.97v-12.45Z"/>
      <path class="st3" d="M195.69,43.97h-18.97v12.45c0,1.8.64,3.34,1.91,4.61,1.27,1.27,2.81,1.91,4.61,1.91h12.45v-18.97Z"/>
      <path class="st3" d="M214.66,50.48c0-1.8-.64-3.34-1.91-4.61-1.27-1.27-2.81-1.91-4.61-1.91h-12.45v18.97h18.97v-12.45Z"/>
      <path class="st3" d="M290.48,50.04h.04v-6.07h-18.97v6.07h.04c-.02.2-.04.35-.04.44v5.93c0,1.8.64,3.34,1.91,4.61,1.27,1.27,2.81,1.91,4.61,1.91h5.93c1.8,0,3.34-.64,4.61-1.91,1.27-1.27,1.91-2.81,1.91-4.61v-5.93c0-.1-.01-.25-.04-.44Z"/>
      <path class="st3" d="M347.41,50.48v-6.52h-12.45c-1.8,0-3.34.64-4.61,1.91-1.27,1.27-1.91,2.81-1.91,4.61v12.45h18.97v-12.45Z"/>
      <rect class="st3" x="347.41" y="43.97" width="18.97" height="18.97"/>
      <path class="st3" d="M385.34,50.48c0-1.8-.64-3.34-1.91-4.61-1.27-1.27-2.81-1.91-4.61-1.91h-12.45v18.97h18.97v-12.45Z"/>
      <path class="st3" d="M423.24,50.04h.04v-6.07h-18.97v6.07h.04c-.02.2-.04.35-.04.44v5.93c0,1.8.64,3.34,1.91,4.61,1.27,1.27,2.81,1.91,4.61,1.91h5.93c1.8,0,3.34-.64,4.61-1.91,1.27-1.27,1.91-2.81,1.91-4.61v-5.93c0-.1-.01-.25-.04-.44Z"/>
      <rect class="st3" x="195.69" y="62.93" width="18.97" height="18.97"/>
      <rect class="st3" x="214.66" y="62.93" width="18.97" height="18.97"/>
      <path class="st3" d="M252.59,69.45c0-1.8-.64-3.34-1.91-4.61-1.27-1.27-2.81-1.91-4.61-1.91h-12.45v18.97h18.97v-12.45Z"/>
      <path class="st3" d="M347.38,69.01h.04v-6.07h-18.97v6.07h.04c-.02.2-.04.35-.04.44v5.93c0,1.8.64,3.34,1.91,4.61,1.27,1.27,2.81,1.91,4.61,1.91h5.93c1.8,0,3.34-.64,4.61-1.91,1.27-1.27,1.91-2.81,1.91-4.61v-5.93c0-.1-.01-.25-.04-.44Z"/>
      <path class="st3" d="M385.31,69.01h.04v-6.07h-18.97v6.07h.04c-.02.2-.04.35-.04.44v5.93c0,1.8.64,3.34,1.91,4.61,1.27,1.27,2.81,1.91,4.61,1.91h5.93c1.8,0,3.34-.64,4.61-1.91,1.27-1.27,1.91-2.81,1.91-4.61v-5.93c0-.1-.01-.25-.04-.44Z"/>
      <path class="st3" d="M195.69,88.42v-6.52h-12.45c-1.8,0-3.34.64-4.61,1.91-1.27,1.27-1.91,2.81-1.91,4.61v5.93c0,1.8.64,3.34,1.91,4.61,1.27,1.27,2.81,1.91,4.61,1.91h12.45v-12.45Z"/>
      <rect class="st3" x="195.69" y="81.9" width="18.97" height="18.97"/>
      <rect class="st3" x="233.62" y="81.9" width="18.97" height="18.97"/>
      <path class="st3" d="M309.48,88.42v-6.52h-12.45c-1.8,0-3.34.64-4.61,1.91-1.27,1.27-1.91,2.81-1.91,4.61v12.45h18.97v-12.45Z"/>
      <path class="st3" d="M321.93,81.9h-12.45v18.97h12.45c1.8,0,3.34-.64,4.61-1.91,1.27-1.27,1.91-2.81,1.91-4.61v-5.93c0-1.8-.64-3.34-1.91-4.61-1.27-1.27-2.81-1.91-4.61-1.91Z"/>
      <path class="st3" d="M366.38,94.34c0,1.8-.64,3.34-1.91,4.61-1.27,1.27-2.81,1.91-4.61,1.91h-5.93c-1.8,0-3.34-.64-4.61-1.91-1.27-1.27-1.91-2.81-1.91-4.61v-5.93c0-1.8.64-3.34,1.91-4.61,1.27-1.27,2.81-1.91,4.61-1.91h5.93c1.8,0,3.34.64,4.61,1.91,1.27,1.27,1.91,2.81,1.91,4.61v5.93Z"/>
      <path class="st3" d="M423.28,94.34c0,1.8-.64,3.34-1.91,4.61-1.27,1.27-2.81,1.91-4.61,1.91h-5.93c-1.8,0-3.34-.64-4.61-1.91-1.27-1.27-1.91-2.81-1.91-4.61v-5.93c0-1.8.64-3.34,1.91-4.61,1.27-1.27,2.81-1.91,4.61-1.91h5.93c1.8,0,3.34.64,4.61,1.91,1.27,1.27,1.91,2.81,1.91,4.61v5.93Z"/>
      <rect class="st3" x="195.69" y="100.86" width="18.97" height="18.97"/>
      <rect class="st3" x="214.66" y="100.86" width="18.97" height="18.97"/>
      <path class="st3" d="M252.59,100.86h-18.97v18.97h12.45c1.8,0,3.34-.64,4.61-1.91,1.27-1.27,1.91-2.81,1.91-4.61v-12.45Z"/>
      <path class="st3" d="M309.45,106.94h.04v-6.07h-18.97v6.07h.04c-.02.2-.04.35-.04.44v5.93c0,1.8.64,3.34,1.91,4.61,1.27,1.27,2.81,1.91,4.61,1.91h5.93c1.8,0,3.34-.64,4.61-1.91,1.27-1.27,1.91-2.81,1.91-4.61v-5.93c0-.1-.01-.25-.04-.44Z"/>
      <path class="st3" d="M347.41,107.38c0-1.8-.64-3.34-1.91-4.61-1.27-1.27-2.81-1.91-4.61-1.91h-5.93c-1.8,0-3.34.64-4.61,1.91-1.27,1.27-1.91,2.81-1.91,4.61v5.93c0,.1.01.25.04.44h-.04v6.07h18.97v-6.07h-.04c.03-.2.04-.35.04-.44v-5.93Z"/>
      <path class="st3" d="M404.31,107.38c0-1.8-.64-3.34-1.91-4.61-1.27-1.27-2.81-1.91-4.61-1.91h-5.93c-1.8,0-3.34.64-4.61,1.91-1.27,1.27-1.91,2.81-1.91,4.61v5.93c0,.1.01.25.04.44h-.04v6.07h18.97v-6.07h-.04c.03-.2.04-.35.04-.44v-5.93Z"/>
      <path class="st3" d="M214.66,119.83h-18.97v12.45c0,1.8.64,3.34,1.91,4.61,1.27,1.27,2.81,1.91,4.61,1.91h12.45v-18.97Z"/>
      <rect class="st3" x="214.66" y="119.83" width="18.97" height="18.97"/>
      <path class="st3" d="M271.55,126.35v-6.52h-12.45c-1.8,0-3.34.64-4.61,1.91-1.27,1.27-1.91,2.81-1.91,4.61v12.45h18.97v-12.45Z"/>
      <path class="st3" d="M284,119.83h-12.45v18.97h12.45c1.8,0,3.34-.64,4.61-1.91,1.27-1.27,1.91-2.81,1.91-4.61v-5.93c0-1.8-.64-3.34-1.91-4.61-1.27-1.27-2.81-1.91-4.61-1.91Z"/>
      <path class="st3" d="M328.45,126.35v-6.52h-12.45c-1.8,0-3.34.64-4.61,1.91-1.27,1.27-1.91,2.81-1.91,4.61v5.93c0,1.8.64,3.34,1.91,4.61,1.27,1.27,2.81,1.91,4.61,1.91h12.45v-12.45Z"/>
      <rect class="st3" x="328.45" y="119.83" width="18.97" height="18.97"/>
      <path class="st3" d="M359.86,119.83h-12.45v18.97h12.45c1.8,0,3.34-.64,4.61-1.91,1.27-1.27,1.91-2.81,1.91-4.61v-5.93c0-1.8-.64-3.34-1.91-4.61-1.27-1.27-2.81-1.91-4.61-1.91Z"/>
      <path class="st3" d="M404.31,119.83h-18.97v12.45c0,1.8.64,3.34,1.91,4.61,1.27,1.27,2.81,1.91,4.61,1.91h12.45v-18.97Z"/>
      <path class="st3" d="M423.28,126.35c0-1.8-.64-3.34-1.91-4.61-1.27-1.27-2.81-1.91-4.61-1.91h-12.45v18.97h18.97v-12.45Z"/>
      <path class="st3" d="M195.69,145.31c0-1.8-.64-3.34-1.91-4.61-1.27-1.27-2.81-1.91-4.61-1.91h-5.93c-1.8,0-3.34.64-4.61,1.91-1.27,1.27-1.91,2.81-1.91,4.61v5.93c0,.1.01.25.04.44h-.04v6.07h18.97v-6.07h-.04c.03-.2.04-.35.04-.44v-5.93Z"/>
      <rect class="st3" x="214.66" y="138.79" width="18.97" height="18.97"/>
      <rect class="st3" x="252.59" y="138.79" width="18.97" height="18.97"/>
      <path class="st3" d="M309.48,151.24c0,1.8-.64,3.34-1.91,4.61-1.27,1.27-2.81,1.91-4.61,1.91h-5.93c-1.8,0-3.34-.64-4.61-1.91-1.27-1.27-1.91-2.81-1.91-4.61v-5.93c0-1.8.64-3.34,1.91-4.61,1.27-1.27,2.81-1.91,4.61-1.91h5.93c1.8,0,3.34.64,4.61,1.91,1.27,1.27,1.91,2.81,1.91,4.61v5.93Z"/>
      <rect class="st3" x="328.45" y="138.79" width="18.97" height="18.97"/>
      <path class="st3" d="M385.34,145.31c0-1.8-.64-3.34-1.91-4.61-1.27-1.27-2.81-1.91-4.61-1.91h-5.93c-1.8,0-3.34.64-4.61,1.91-1.27,1.27-1.91,2.81-1.91,4.61v5.93c0,.1.01.25.04.44h-.04v6.07h18.97v-6.07h-.04c.03-.2.04-.35.04-.44v-5.93Z"/>
      <path class="st3" d="M423.24,144.87h.04v-6.07h-18.97v6.07h.04c-.02.2-.04.35-.04.44v5.93c0,1.8.64,3.34,1.91,4.61,1.27,1.27,2.81,1.91,4.61,1.91h5.93c1.8,0,3.34-.64,4.61-1.91,1.27-1.27,1.91-2.81,1.91-4.61v-5.93c0-.1-.01-.25-.04-.44Z"/>
      <path class="st3" d="M195.65,163.83h.04v-6.07h-18.97v6.07h.04c-.02.2-.04.35-.04.44v5.93c0,1.8.64,3.34,1.91,4.61,1.27,1.27,2.81,1.91,4.61,1.91h5.93c1.8,0,3.34-.64,4.61-1.91,1.27-1.27,1.91-2.81,1.91-4.61v-5.93c0-.1-.01-.25-.04-.44Z"/>
      <rect class="st3" x="214.66" y="157.76" width="18.97" height="18.97"/>
      <rect class="st3" x="233.62" y="157.76" width="18.97" height="18.97"/>
      <path class="st3" d="M271.55,157.76h-18.97v18.97h12.45c1.8,0,3.34-.64,4.61-1.91,1.27-1.27,1.91-2.81,1.91-4.61v-12.45Z"/>
      <path class="st3" d="M328.45,164.28v-6.52h-12.45c-1.8,0-3.34.64-4.61,1.91-1.27,1.27-1.91,2.81-1.91,4.61v12.45h18.97v-12.45Z"/>
      <rect class="st3" x="328.45" y="157.76" width="18.97" height="18.97"/>
      <rect class="st3" x="347.41" y="157.76" width="18.97" height="18.97"/>
      <rect class="st3" x="366.38" y="157.76" width="18.97" height="18.97"/>
      <path class="st3" d="M397.79,157.76h-12.45v18.97h12.45c1.8,0,3.34-.64,4.61-1.91,1.27-1.27,1.91-2.81,1.91-4.61v-5.93c0-1.8-.64-3.34-1.91-4.61-1.27-1.27-2.81-1.91-4.61-1.91Z"/>
      <path class="st3" d="M43.97,183.24c0-1.8-.64-3.34-1.91-4.61-1.27-1.27-2.81-1.91-4.61-1.91h-5.93c-1.8,0-3.34.64-4.61,1.91-1.27,1.27-1.91,2.81-1.91,4.61v5.93c0,.1.01.25.04.44h-.04v6.07h18.97v-6.07h-.04c.03-.2.04-.35.04-.44v-5.93Z"/>
      <path class="st3" d="M81.9,183.24v-6.52h-12.45c-1.8,0-3.34.64-4.61,1.91-1.27,1.27-1.91,2.81-1.91,4.61v5.93c0,1.8.64,3.34,1.91,4.61,1.27,1.27,2.81,1.91,4.61,1.91h12.45v-12.45Z"/>
      <path class="st3" d="M94.34,176.72h-12.45v18.97h12.45c1.8,0,3.34-.64,4.61-1.91,1.27-1.27,1.91-2.81,1.91-4.61v-5.93c0-1.8-.64-3.34-1.91-4.61-1.27-1.27-2.81-1.91-4.61-1.91Z"/>
      <path class="st3" d="M138.79,183.24v-6.52h-12.45c-1.8,0-3.34.64-4.61,1.91-1.27,1.27-1.91,2.81-1.91,4.61v12.45h18.97v-12.45Z"/>
      <rect class="st3" x="138.79" y="176.72" width="18.97" height="18.97"/>
      <path class="st3" d="M170.2,176.72h-12.45v18.97h12.45c1.8,0,3.34-.64,4.61-1.91,1.27-1.27,1.91-2.81,1.91-4.61v-5.93c0-1.8-.64-3.34-1.91-4.61-1.27-1.27-2.81-1.91-4.61-1.91Z"/>
      <path class="st3" d="M214.66,183.24v-6.52h-12.45c-1.8,0-3.34.64-4.61,1.91-1.27,1.27-1.91,2.81-1.91,4.61v12.45h18.97v-12.45Z"/>
      <path class="st3" d="M233.62,176.72h-18.97v18.97h12.45c1.8,0,3.34-.64,4.61-1.91,1.27-1.27,1.91-2.81,1.91-4.61v-12.45Z"/>
      <path class="st3" d="M290.52,183.24c0-1.8-.64-3.34-1.91-4.61-1.27-1.27-2.81-1.91-4.61-1.91h-5.93c-1.8,0-3.34.64-4.61,1.91-1.27,1.27-1.91,2.81-1.91,4.61v5.93c0,.1.01.25.04.44h-.04v6.07h18.97v-6.07h-.04c.03-.2.04-.35.04-.44v-5.93Z"/>
      <rect class="st3" x="309.48" y="176.72" width="18.97" height="18.97"/>
      <rect class="st3" x="347.41" y="176.72" width="18.97" height="18.97"/>
      <rect class="st3" x="366.38" y="176.72" width="18.97" height="18.97"/>
      <path class="st3" d="M461.21,183.24c0-1.8-.64-3.34-1.91-4.61-1.27-1.27-2.81-1.91-4.61-1.91h-5.93c-1.8,0-3.34.64-4.61,1.91-1.27,1.27-1.91,2.81-1.91,4.61v5.93c0,.1.01.25.04.44h-.04v6.07h18.97v-6.07h-.04c.03-.2.04-.35.04-.44v-5.93Z"/>
      <path class="st3" d="M518.1,189.17c0,1.8-.64,3.34-1.91,4.61-1.27,1.27-2.81,1.91-4.61,1.91h-5.93c-1.8,0-3.34-.64-4.61-1.91-1.27-1.27-1.91-2.81-1.91-4.61v-5.93c0-1.8.64-3.34,1.91-4.61,1.27-1.27,2.81-1.91,4.61-1.91h5.93c1.8,0,3.34.64,4.61,1.91,1.27,1.27,1.91,2.81,1.91,4.61v5.93Z"/>
      <path class="st3" d="M556.03,183.24v-6.52h-12.45c-1.8,0-3.34.64-4.61,1.91-1.27,1.27-1.91,2.81-1.91,4.61v5.93c0,1.8.64,3.34,1.91,4.61,1.27,1.27,2.81,1.91,4.61,1.91h12.45v-12.45Z"/>
      <path class="st3" d="M575,183.24c0-1.8-.64-3.34-1.91-4.61-1.27-1.27-2.81-1.91-4.61-1.91h-12.45v18.97h18.97v-12.45Z"/>
      <path class="st3" d="M43.97,195.69h-18.97v12.45c0,1.8.64,3.34,1.91,4.61,1.27,1.27,2.81,1.91,4.61,1.91h12.45v-18.97Z"/>
      <path class="st3" d="M56.41,195.69h-12.45v18.97h12.45c1.8,0,3.34-.64,4.61-1.91,1.27-1.27,1.91-2.81,1.91-4.61v-5.93c0-1.8-.64-3.34-1.91-4.61-1.27-1.27-2.81-1.91-4.61-1.91Z"/>
      <path class="st3" d="M119.83,202.21v-6.52h-12.45c-1.8,0-3.34.64-4.61,1.91-1.27,1.27-1.91,2.81-1.91,4.61v5.93c0,1.8.64,3.34,1.91,4.61,1.27,1.27,2.81,1.91,4.61,1.91h12.45v-12.45Z"/>
      <rect class="st3" x="119.83" y="195.69" width="18.97" height="18.97"/>
      <path class="st3" d="M195.69,202.21v-6.52h-12.45c-1.8,0-3.34.64-4.61,1.91-1.27,1.27-1.91,2.81-1.91,4.61v5.93c0,1.8.64,3.34,1.91,4.61,1.27,1.27,2.81,1.91,4.61,1.91h12.45v-12.45Z"/>
      <path class="st3" d="M214.66,195.69h-18.97v18.97h12.45c1.8,0,3.34-.64,4.61-1.91,1.27-1.27,1.91-2.81,1.91-4.61v-12.45Z"/>
      <path class="st3" d="M252.59,202.21v-6.52h-12.45c-1.8,0-3.34.64-4.61,1.91-1.27,1.27-1.91,2.81-1.91,4.61v5.93c0,1.8.64,3.34,1.91,4.61,1.27,1.27,2.81,1.91,4.61,1.91h12.45v-12.45Z"/>
      <rect class="st3" x="252.59" y="195.69" width="18.97" height="18.97"/>
      <rect class="st3" x="271.55" y="195.69" width="18.97" height="18.97"/>
      <rect class="st3" x="290.52" y="195.69" width="18.97" height="18.97"/>
      <path class="st3" d="M328.45,195.69h-18.97v18.97h12.45c1.8,0,3.34-.64,4.61-1.91,1.27-1.27,1.91-2.81,1.91-4.61v-12.45Z"/>
      <rect class="st3" x="347.41" y="195.69" width="18.97" height="18.97"/>
      <rect class="st3" x="366.38" y="195.69" width="18.97" height="18.97"/>
      <rect class="st3" x="385.34" y="195.69" width="18.97" height="18.97"/>
      <rect class="st3" x="404.31" y="195.69" width="18.97" height="18.97"/>
      <rect class="st3" x="423.28" y="195.69" width="18.97" height="18.97"/>
      <rect class="st3" x="442.24" y="195.69" width="18.97" height="18.97"/>
      <rect class="st3" x="461.21" y="195.69" width="18.97" height="18.97"/>
      <path class="st3" d="M492.62,195.69h-12.45v18.97h12.45c1.8,0,3.34-.64,4.61-1.91,1.27-1.27,1.91-2.81,1.91-4.61v-5.93c0-1.8-.64-3.34-1.91-4.61-1.27-1.27-2.81-1.91-4.61-1.91Z"/>
      <path class="st3" d="M574.96,201.76h.04v-6.07h-18.97v6.07h.04c-.02.2-.04.35-.04.44v5.93c0,1.8.64,3.34,1.91,4.61,1.27,1.27,2.81,1.91,4.61,1.91h5.93c1.8,0,3.34-.64,4.61-1.91,1.27-1.27,1.91-2.81,1.91-4.61v-5.93c0-.1-.01-.25-.04-.44Z"/>
      <path class="st3" d="M100.86,227.1c0,1.8-.64,3.34-1.91,4.61-1.27,1.27-2.81,1.91-4.61,1.91h-5.93c-1.8,0-3.34-.64-4.61-1.91-1.27-1.27-1.91-2.81-1.91-4.61v-5.93c0-1.8.64-3.34,1.91-4.61,1.27-1.27,2.81-1.91,4.61-1.91h5.93c1.8,0,3.34.64,4.61,1.91,1.27,1.27,1.91,2.81,1.91,4.61v5.93Z"/>
      <path class="st3" d="M138.79,214.66h-18.97v12.45c0,1.8.64,3.34,1.91,4.61,1.27,1.27,2.81,1.91,4.61,1.91h12.45v-18.97Z"/>
      <path class="st3" d="M151.24,214.66h-12.45v18.97h12.45c1.8,0,3.34-.64,4.61-1.91,1.27-1.27,1.91-2.81,1.91-4.61v-5.93c0-1.8-.64-3.34-1.91-4.61-1.27-1.27-2.81-1.91-4.61-1.91Z"/>
      <rect class="st3" x="252.59" y="214.66" width="18.97" height="18.97"/>
      <path class="st3" d="M290.52,214.66h-18.97v18.97h12.45c1.8,0,3.34-.64,4.61-1.91,1.27-1.27,1.91-2.81,1.91-4.61v-12.45Z"/>
      <path class="st3" d="M347.41,221.17v-6.52h-12.45c-1.8,0-3.34.64-4.61,1.91-1.27,1.27-1.91,2.81-1.91,4.61v12.45h18.97v-12.45Z"/>
      <path class="st3" d="M366.38,214.66h-18.97v18.97h12.45c1.8,0,3.34-.64,4.61-1.91,1.27-1.27,1.91-2.81,1.91-4.61v-12.45Z"/>
      <rect class="st3" x="404.31" y="214.66" width="18.97" height="18.97"/>
      <rect class="st3" x="442.24" y="214.66" width="18.97" height="18.97"/>
      <rect class="st3" x="461.21" y="214.66" width="18.97" height="18.97"/>
      <path class="st3" d="M537.07,221.17v-6.52h-12.45c-1.8,0-3.34.64-4.61,1.91-1.27,1.27-1.91,2.81-1.91,4.61v5.93c0,1.8.64,3.34,1.91,4.61,1.27,1.27,2.81,1.91,4.61,1.91h12.45v-12.45Z"/>
      <path class="st3" d="M549.52,214.66h-12.45v18.97h12.45c1.8,0,3.34-.64,4.61-1.91,1.27-1.27,1.91-2.81,1.91-4.61v-5.93c0-1.8-.64-3.34-1.91-4.61-1.27-1.27-2.81-1.91-4.61-1.91Z"/>
      <path class="st3" d="M43.97,240.14v-6.52h-12.45c-1.8,0-3.34.64-4.61,1.91-1.27,1.27-1.91,2.81-1.91,4.61v5.93c0,1.8.64,3.34,1.91,4.61,1.27,1.27,2.81,1.91,4.61,1.91h12.45v-12.45Z"/>
      <rect class="st3" x="43.97" y="233.62" width="18.97" height="18.97"/>
      <path class="st3" d="M75.38,233.62h-12.45v18.97h12.45c1.8,0,3.34-.64,4.61-1.91,1.27-1.27,1.91-2.81,1.91-4.61v-5.93c0-1.8-.64-3.34-1.91-4.61-1.27-1.27-2.81-1.91-4.61-1.91Z"/>
      <path class="st3" d="M119.83,240.14c0-1.8-.64-3.34-1.91-4.61-1.27-1.27-2.81-1.91-4.61-1.91h-5.93c-1.8,0-3.34.64-4.61,1.91-1.27,1.27-1.91,2.81-1.91,4.61v5.93c0,.1.01.25.04.44h-.04v6.07h18.97v-6.07h-.04c.03-.2.04-.35.04-.44v-5.93Z"/>
      <path class="st3" d="M252.59,240.14v-6.52h-12.45c-1.8,0-3.34.64-4.61,1.91-1.27,1.27-1.91,2.81-1.91,4.61v12.45h18.97v-12.45Z"/>
      <rect class="st3" x="252.59" y="233.62" width="18.97" height="18.97"/>
      <path class="st3" d="M347.38,239.7h.04v-6.07h-18.97v6.07h.04c-.02.2-.04.35-.04.44v5.93c0,1.8.64,3.34,1.91,4.61,1.27,1.27,2.81,1.91,4.61,1.91h5.93c1.8,0,3.34-.64,4.61-1.91,1.27-1.27,1.91-2.81,1.91-4.61v-5.93c0-.1-.01-.25-.04-.44Z"/>
      <rect class="st3" x="404.31" y="233.62" width="18.97" height="18.97"/>
      <rect class="st3" x="423.28" y="233.62" width="18.97" height="18.97"/>
      <rect class="st3" x="442.24" y="233.62" width="18.97" height="18.97"/>
      <path class="st3" d="M480.17,233.62h-18.97v18.97h12.45c1.8,0,3.34-.64,4.61-1.91,1.27-1.27,1.91-2.81,1.91-4.61v-12.45Z"/>
      <path class="st3" d="M575,246.07c0,1.8-.64,3.34-1.91,4.61-1.27,1.27-2.81,1.91-4.61,1.91h-5.93c-1.8,0-3.34-.64-4.61-1.91-1.27-1.27-1.91-2.81-1.91-4.61v-5.93c0-1.8.64-3.34,1.91-4.61,1.27-1.27,2.81-1.91,4.61-1.91h5.93c1.8,0,3.34.64,4.61,1.91,1.27,1.27,1.91,2.81,1.91,4.61v5.93Z"/>
      <rect class="st3" x="100.86" y="252.59" width="18.97" height="18.97"/>
      <path class="st3" d="M157.76,259.11v-6.52h-12.45c-1.8,0-3.34.64-4.61,1.91-1.27,1.27-1.91,2.81-1.91,4.61v5.93c0,1.8.64,3.34,1.91,4.61,1.27,1.27,2.81,1.91,4.61,1.91h12.45v-12.45Z"/>
      <rect class="st3" x="157.76" y="252.59" width="18.97" height="18.97"/>
      <path class="st3" d="M189.17,252.59h-12.45v18.97h12.45c1.8,0,3.34-.64,4.61-1.91,1.27-1.27,1.91-2.81,1.91-4.61v-5.93c0-1.8-.64-3.34-1.91-4.61-1.27-1.27-2.81-1.91-4.61-1.91Z"/>
      <path class="st3" d="M233.62,259.11v-6.52h-12.45c-1.8,0-3.34.64-4.61,1.91-1.27,1.27-1.91,2.81-1.91,4.61v12.45h18.97v-12.45Z"/>
      <rect class="st3" x="233.62" y="252.59" width="18.97" height="18.97"/>
      <rect class="st3" x="252.59" y="252.59" width="18.97" height="18.97"/>
      <path class="st3" d="M309.48,259.11v-6.52h-12.45c-1.8,0-3.34.64-4.61,1.91-1.27,1.27-1.91,2.81-1.91,4.61v12.45h18.97v-12.45Z"/>
      <path class="st3" d="M321.93,252.59h-12.45v18.97h12.45c1.8,0,3.34-.64,4.61-1.91,1.27-1.27,1.91-2.81,1.91-4.61v-5.93c0-1.8-.64-3.34-1.91-4.61-1.27-1.27-2.81-1.91-4.61-1.91Z"/>
      <path class="st3" d="M366.38,265.03c0,1.8-.64,3.34-1.91,4.61-1.27,1.27-2.81,1.91-4.61,1.91h-5.93c-1.8,0-3.34-.64-4.61-1.91-1.27-1.27-1.91-2.81-1.91-4.61v-5.93c0-1.8.64-3.34,1.91-4.61,1.27-1.27,2.81-1.91,4.61-1.91h5.93c1.8,0,3.34.64,4.61,1.91,1.27,1.27,1.91,2.81,1.91,4.61v5.93Z"/>
      <path class="st3" d="M423.24,258.66h.04v-6.07h-18.97v6.07h.04c-.02.2-.04.35-.04.44v5.93c0,1.8.64,3.34,1.91,4.61,1.27,1.27,2.81,1.91,4.61,1.91h5.93c1.8,0,3.34-.64,4.61-1.91,1.27-1.27,1.91-2.81,1.91-4.61v-5.93c0-.1-.01-.25-.04-.44Z"/>
      <path class="st3" d="M518.1,259.11v-6.52h-12.45c-1.8,0-3.34.64-4.61,1.91-1.27,1.27-1.91,2.81-1.91,4.61v5.93c0,1.8.64,3.34,1.91,4.61,1.27,1.27,2.81,1.91,4.61,1.91h12.45v-12.45Z"/>
      <path class="st3" d="M537.07,259.11c0-1.8-.64-3.34-1.91-4.61-1.27-1.27-2.81-1.91-4.61-1.91h-12.45v18.97h18.97v-12.45Z"/>
      <path class="st3" d="M43.97,278.07v-6.52h-12.45c-1.8,0-3.34.64-4.61,1.91-1.27,1.27-1.91,2.81-1.91,4.61v12.45h18.97v-12.45Z"/>
      <path class="st3" d="M62.93,278.07c0-1.8-.64-3.34-1.91-4.61-1.27-1.27-2.81-1.91-4.61-1.91h-12.45v18.97h18.97v-12.45Z"/>
      <path class="st3" d="M100.86,278.07v-6.52h-12.45c-1.8,0-3.34.64-4.61,1.91-1.27,1.27-1.91,2.81-1.91,4.61v5.93c0,1.8.64,3.34,1.91,4.61,1.27,1.27,2.81,1.91,4.61,1.91h12.45v-12.45Z"/>
      <rect class="st3" x="100.86" y="271.55" width="18.97" height="18.97"/>
      <path class="st3" d="M132.27,271.55h-12.45v18.97h12.45c1.8,0,3.34-.64,4.61-1.91,1.27-1.27,1.91-2.81,1.91-4.61v-5.93c0-1.8-.64-3.34-1.91-4.61-1.27-1.27-2.81-1.91-4.61-1.91Z"/>
      <path class="st3" d="M214.66,278.07v-6.52h-12.45c-1.8,0-3.34.64-4.61,1.91-1.27,1.27-1.91,2.81-1.91,4.61v5.93c0,1.8.64,3.34,1.91,4.61,1.27,1.27,2.81,1.91,4.61,1.91h12.45v-12.45Z"/>
      <rect class="st3" x="214.66" y="271.55" width="18.97" height="18.97"/>
      <rect class="st3" x="252.59" y="271.55" width="18.97" height="18.97"/>
      <path class="st3" d="M309.45,277.63h.04v-6.07h-18.97v6.07h.04c-.02.2-.04.35-.04.44v5.93c0,1.8.64,3.34,1.91,4.61,1.27,1.27,2.81,1.91,4.61,1.91h5.93c1.8,0,3.34-.64,4.61-1.91,1.27-1.27,1.91-2.81,1.91-4.61v-5.93c0-.1-.01-.25-.04-.44Z"/>
      <path class="st3" d="M347.41,278.07c0-1.8-.64-3.34-1.91-4.61-1.27-1.27-2.81-1.91-4.61-1.91h-5.93c-1.8,0-3.34.64-4.61,1.91-1.27,1.27-1.91,2.81-1.91,4.61v5.93c0,.1.01.25.04.44h-.04v6.07h18.97v-6.07h-.04c.03-.2.04-.35.04-.44v-5.93Z"/>
      <path class="st3" d="M404.31,278.07c0-1.8-.64-3.34-1.91-4.61-1.27-1.27-2.81-1.91-4.61-1.91h-5.93c-1.8,0-3.34.64-4.61,1.91-1.27,1.27-1.91,2.81-1.91,4.61v5.93c0,.1.01.25.04.44h-.04v6.07h18.97v-6.07h-.04c.03-.2.04-.35.04-.44v-5.93Z"/>
      <path class="st3" d="M461.21,284c0,1.8-.64,3.34-1.91,4.61-1.27,1.27-2.81,1.91-4.61,1.91h-5.93c-1.8,0-3.34-.64-4.61-1.91-1.27-1.27-1.91-2.81-1.91-4.61v-5.93c0-1.8.64-3.34,1.91-4.61,1.27-1.27,2.81-1.91,4.61-1.91h5.93c1.8,0,3.34.64,4.61,1.91,1.27,1.27,1.91,2.81,1.91,4.61v5.93Z"/>
      <rect class="st3" x="518.1" y="271.55" width="18.97" height="18.97"/>
      <rect class="st3" x="537.07" y="271.55" width="18.97" height="18.97"/>
      <path class="st3" d="M575,278.07c0-1.8-.64-3.34-1.91-4.61-1.27-1.27-2.81-1.91-4.61-1.91h-12.45v18.97h18.97v-12.45Z"/>
      <rect class="st3" x="25" y="290.52" width="18.97" height="18.97"/>
      <path class="st3" d="M62.93,290.52h-18.97v18.97h12.45c1.8,0,3.34-.64,4.61-1.91,1.27-1.27,1.91-2.81,1.91-4.61v-12.45Z"/>
      <rect class="st3" x="100.86" y="290.52" width="18.97" height="18.97"/>
      <path class="st3" d="M157.76,302.96c0,1.8-.64,3.34-1.91,4.61-1.27,1.27-2.81,1.91-4.61,1.91h-5.93c-1.8,0-3.34-.64-4.61-1.91-1.27-1.27-1.91-2.81-1.91-4.61v-5.93c0-1.8.64-3.34,1.91-4.61,1.27-1.27,2.81-1.91,4.61-1.91h5.93c1.8,0,3.34.64,4.61,1.91,1.27,1.27,1.91,2.81,1.91,4.61v5.93Z"/>
      <rect class="st3" x="214.66" y="290.52" width="18.97" height="18.97"/>
      <rect class="st3" x="233.62" y="290.52" width="18.97" height="18.97"/>
      <rect class="st3" x="252.59" y="290.52" width="18.97" height="18.97"/>
      <path class="st3" d="M284,290.52h-12.45v18.97h12.45c1.8,0,3.34-.64,4.61-1.91,1.27-1.27,1.91-2.81,1.91-4.61v-5.93c0-1.8-.64-3.34-1.91-4.61-1.27-1.27-2.81-1.91-4.61-1.91Z"/>
      <path class="st3" d="M328.45,297.04v-6.52h-12.45c-1.8,0-3.34.64-4.61,1.91-1.27,1.27-1.91,2.81-1.91,4.61v5.93c0,1.8.64,3.34,1.91,4.61,1.27,1.27,2.81,1.91,4.61,1.91h12.45v-12.45Z"/>
      <rect class="st3" x="328.45" y="290.52" width="18.97" height="18.97"/>
      <rect class="st3" x="385.34" y="290.52" width="18.97" height="18.97"/>
      <rect class="st3" x="404.31" y="290.52" width="18.97" height="18.97"/>
      <path class="st3" d="M435.72,290.52h-12.45v18.97h12.45c1.8,0,3.34-.64,4.61-1.91,1.27-1.27,1.91-2.81,1.91-4.61v-5.93c0-1.8-.64-3.34-1.91-4.61-1.27-1.27-2.81-1.91-4.61-1.91Z"/>
      <path class="st3" d="M480.17,302.96c0,1.8-.64,3.34-1.91,4.61-1.27,1.27-2.81,1.91-4.61,1.91h-5.93c-1.8,0-3.34-.64-4.61-1.91-1.27-1.27-1.91-2.81-1.91-4.61v-5.93c0-1.8.64-3.34,1.91-4.61,1.27-1.27,2.81-1.91,4.61-1.91h5.93c1.8,0,3.34.64,4.61,1.91,1.27,1.27,1.91,2.81,1.91,4.61v5.93Z"/>
      <path class="st3" d="M537.07,290.52h-18.97v12.45c0,1.8.64,3.34,1.91,4.61,1.27,1.27,2.81,1.91,4.61,1.91h12.45v-18.97Z"/>
      <rect class="st3" x="537.07" y="290.52" width="18.97" height="18.97"/>
      <path class="st3" d="M575,290.52h-18.97v18.97h12.45c1.8,0,3.34-.64,4.61-1.91,1.27-1.27,1.91-2.81,1.91-4.61v-12.45Z"/>
      <path class="st3" d="M43.93,315.56h.04v-6.07h-18.97v6.07h.04c-.02.2-.04.35-.04.44v5.93c0,1.8.64,3.34,1.91,4.61,1.27,1.27,2.81,1.91,4.61,1.91h5.93c1.8,0,3.34-.64,4.61-1.91,1.27-1.27,1.91-2.81,1.91-4.61v-5.93c0-.1-.01-.25-.04-.44Z"/>
      <rect class="st3" x="100.86" y="309.48" width="18.97" height="18.97"/>
      <path class="st3" d="M176.72,316v-6.52h-12.45c-1.8,0-3.34.64-4.61,1.91-1.27,1.27-1.91,2.81-1.91,4.61v5.93c0,1.8.64,3.34,1.91,4.61,1.27,1.27,2.81,1.91,4.61,1.91h12.45v-12.45Z"/>
      <path class="st3" d="M189.17,309.48h-12.45v18.97h12.45c1.8,0,3.34-.64,4.61-1.91,1.27-1.27,1.91-2.81,1.91-4.61v-5.93c0-1.8-.64-3.34-1.91-4.61-1.27-1.27-2.81-1.91-4.61-1.91Z"/>
      <path class="st3" d="M233.62,309.48h-18.97v12.45c0,1.8.64,3.34,1.91,4.61,1.27,1.27,2.81,1.91,4.61,1.91h12.45v-18.97Z"/>
      <rect class="st3" x="233.62" y="309.48" width="18.97" height="18.97"/>
      <path class="st3" d="M271.55,309.48h-18.97v18.97h12.45c1.8,0,3.34-.64,4.61-1.91,1.27-1.27,1.91-2.81,1.91-4.61v-12.45Z"/>
      <path class="st3" d="M309.48,316c0-1.8-.64-3.34-1.91-4.61-1.27-1.27-2.81-1.91-4.61-1.91h-5.93c-1.8,0-3.34.64-4.61,1.91-1.27,1.27-1.91,2.81-1.91,4.61v5.93c0,.1.01.25.04.44h-.04v6.07h18.97v-6.07h-.04c.03-.2.04-.35.04-.44v-5.93Z"/>
      <path class="st3" d="M347.38,315.56h.04v-6.07h-18.97v6.07h.04c-.02.2-.04.35-.04.44v5.93c0,1.8.64,3.34,1.91,4.61,1.27,1.27,2.81,1.91,4.61,1.91h5.93c1.8,0,3.34-.64,4.61-1.91,1.27-1.27,1.91-2.81,1.91-4.61v-5.93c0-.1-.01-.25-.04-.44Z"/>
      <rect class="st3" x="385.34" y="309.48" width="18.97" height="18.97"/>
      <rect class="st3" x="404.31" y="309.48" width="18.97" height="18.97"/>
      <path class="st3" d="M499.14,316c0-1.8-.64-3.34-1.91-4.61-1.27-1.27-2.81-1.91-4.61-1.91h-5.93c-1.8,0-3.34.64-4.61,1.91-1.27,1.27-1.91,2.81-1.91,4.61v5.93c0,.1.01.25.04.44h-.04v6.07h18.97v-6.07h-.04c.03-.2.04-.35.04-.44v-5.93Z"/>
      <rect class="st3" x="537.07" y="309.48" width="18.97" height="18.97"/>
      <path class="st3" d="M81.9,334.97c0-1.8-.64-3.34-1.91-4.61-1.27-1.27-2.81-1.91-4.61-1.91h-5.93c-1.8,0-3.34.64-4.61,1.91-1.27,1.27-1.91,2.81-1.91,4.61v5.93c0,.1.01.25.04.44h-.04v6.07h18.97v-6.07h-.04c.03-.2.04-.35.04-.44v-5.93Z"/>
      <path class="st3" d="M119.79,334.52h.04v-6.07h-18.97v6.07h.04c-.02.2-.04.35-.04.44v5.93c0,1.8.64,3.34,1.91,4.61,1.27,1.27,2.81,1.91,4.61,1.91h5.93c1.8,0,3.34-.64,4.61-1.91,1.27-1.27,1.91-2.81,1.91-4.61v-5.93c0-.1-.01-.25-.04-.44Z"/>
      <path class="st3" d="M157.76,340.89c0,1.8-.64,3.34-1.91,4.61-1.27,1.27-2.81,1.91-4.61,1.91h-5.93c-1.8,0-3.34-.64-4.61-1.91-1.27-1.27-1.91-2.81-1.91-4.61v-5.93c0-1.8.64-3.34,1.91-4.61,1.27-1.27,2.81-1.91,4.61-1.91h5.93c1.8,0,3.34.64,4.61,1.91,1.27,1.27,1.91,2.81,1.91,4.61v5.93Z"/>
      <rect class="st3" x="290.52" y="328.45" width="18.97" height="18.97"/>
      <path class="st3" d="M321.93,328.45h-12.45v18.97h12.45c1.8,0,3.34-.64,4.61-1.91,1.27-1.27,1.91-2.81,1.91-4.61v-5.93c0-1.8-.64-3.34-1.91-4.61-1.27-1.27-2.81-1.91-4.61-1.91Z"/>
      <path class="st3" d="M385.34,334.97v-6.52h-12.45c-1.8,0-3.34.64-4.61,1.91-1.27,1.27-1.91,2.81-1.91,4.61v5.93c0,1.8.64,3.34,1.91,4.61,1.27,1.27,2.81,1.91,4.61,1.91h12.45v-12.45Z"/>
      <rect class="st3" x="385.34" y="328.45" width="18.97" height="18.97"/>
      <rect class="st3" x="404.31" y="328.45" width="18.97" height="18.97"/>
      <path class="st3" d="M435.72,328.45h-12.45v18.97h12.45c1.8,0,3.34-.64,4.61-1.91,1.27-1.27,1.91-2.81,1.91-4.61v-5.93c0-1.8-.64-3.34-1.91-4.61-1.27-1.27-2.81-1.91-4.61-1.91Z"/>
      <path class="st3" d="M480.17,334.97v-6.52h-12.45c-1.8,0-3.34.64-4.61,1.91-1.27,1.27-1.91,2.81-1.91,4.61v12.45h18.97v-12.45Z"/>
      <rect class="st3" x="480.17" y="328.45" width="18.97" height="18.97"/>
      <path class="st3" d="M518.1,334.97c0-1.8-.64-3.34-1.91-4.61-1.27-1.27-2.81-1.91-4.61-1.91h-12.45v18.97h18.97v-12.45Z"/>
      <rect class="st3" x="537.07" y="328.45" width="18.97" height="18.97"/>
      <rect class="st3" x="62.93" y="347.41" width="18.97" height="18.97"/>
      <path class="st3" d="M138.79,353.93c0-1.8-.64-3.34-1.91-4.61-1.27-1.27-2.81-1.91-4.61-1.91h-5.93c-1.8,0-3.34.64-4.61,1.91-1.27,1.27-1.91,2.81-1.91,4.61v5.93c0,.1.01.25.04.44h-.04v6.07h18.97v-6.07h-.04c.03-.2.04-.35.04-.44v-5.93Z"/>
      <path class="st3" d="M176.72,353.93c0-1.8-.64-3.34-1.91-4.61-1.27-1.27-2.81-1.91-4.61-1.91h-5.93c-1.8,0-3.34.64-4.61,1.91-1.27,1.27-1.91,2.81-1.91,4.61v5.93c0,.1.01.25.04.44h-.04v6.07h18.97v-6.07h-.04c.03-.2.04-.35.04-.44v-5.93Z"/>
      <path class="st3" d="M252.59,359.86c0,1.8-.64,3.34-1.91,4.61-1.27,1.27-2.81,1.91-4.61,1.91h-5.93c-1.8,0-3.34-.64-4.61-1.91-1.27-1.27-1.91-2.81-1.91-4.61v-5.93c0-1.8.64-3.34,1.91-4.61,1.27-1.27,2.81-1.91,4.61-1.91h5.93c1.8,0,3.34.64,4.61,1.91,1.27,1.27,1.91,2.81,1.91,4.61v5.93Z"/>
      <rect class="st3" x="290.52" y="347.41" width="18.97" height="18.97"/>
      <path class="st3" d="M347.41,353.93v-6.52h-12.45c-1.8,0-3.34.64-4.61,1.91-1.27,1.27-1.91,2.81-1.91,4.61v12.45h18.97v-12.45Z"/>
      <path class="st3" d="M366.38,353.93c0-1.8-.64-3.34-1.91-4.61-1.27-1.27-2.81-1.91-4.61-1.91h-12.45v18.97h18.97v-12.45Z"/>
      <rect class="st3" x="404.31" y="347.41" width="18.97" height="18.97"/>
      <path class="st3" d="M480.14,353.49h.04v-6.07h-18.97v6.07h.04c-.02.2-.04.35-.04.44v5.93c0,1.8.64,3.34,1.91,4.61,1.27,1.27,2.81,1.91,4.61,1.91h5.93c1.8,0,3.34-.64,4.61-1.91,1.27-1.27,1.91-2.81,1.91-4.61v-5.93c0-.1-.01-.25-.04-.44Z"/>
      <path class="st3" d="M518.1,347.41h-18.97v12.45c0,1.8.64,3.34,1.91,4.61,1.27,1.27,2.81,1.91,4.61,1.91h12.45v-18.97Z"/>
      <rect class="st3" x="518.1" y="347.41" width="18.97" height="18.97"/>
      <path class="st3" d="M556.03,347.41h-18.97v18.97h12.45c1.8,0,3.34-.64,4.61-1.91,1.27-1.27,1.91-2.81,1.91-4.61v-12.45Z"/>
      <path class="st3" d="M43.97,378.83c0,1.8-.64,3.34-1.91,4.61-1.27,1.27-2.81,1.91-4.61,1.91h-5.93c-1.8,0-3.34-.64-4.61-1.91-1.27-1.27-1.91-2.81-1.91-4.61v-5.93c0-1.8.64-3.34,1.91-4.61,1.27-1.27,2.81-1.91,4.61-1.91h5.93c1.8,0,3.34.64,4.61,1.91,1.27,1.27,1.91,2.81,1.91,4.61v5.93Z"/>
      <path class="st3" d="M81.86,372.45h.04v-6.07h-18.97v6.07h.04c-.02.2-.04.35-.04.44v5.93c0,1.8.64,3.34,1.91,4.61,1.27,1.27,2.81,1.91,4.61,1.91h5.93c1.8,0,3.34-.64,4.61-1.91,1.27-1.27,1.91-2.81,1.91-4.61v-5.93c0-.1-.01-.25-.04-.44Z"/>
      <path class="st3" d="M119.83,372.9v-6.52h-12.45c-1.8,0-3.34.64-4.61,1.91-1.27,1.27-1.91,2.81-1.91,4.61v12.45h18.97v-12.45Z"/>
      <rect class="st3" x="119.83" y="366.38" width="18.97" height="18.97"/>
      <rect class="st3" x="138.79" y="366.38" width="18.97" height="18.97"/>
      <rect class="st3" x="157.76" y="366.38" width="18.97" height="18.97"/>
      <rect class="st3" x="176.72" y="366.38" width="18.97" height="18.97"/>
      <path class="st3" d="M214.66,372.9c0-1.8-.64-3.34-1.91-4.61-1.27-1.27-2.81-1.91-4.61-1.91h-12.45v18.97h18.97v-12.45Z"/>
      <path class="st3" d="M271.55,372.9v-6.52h-12.45c-1.8,0-3.34.64-4.61,1.91-1.27,1.27-1.91,2.81-1.91,4.61v12.45h18.97v-12.45Z"/>
      <rect class="st3" x="271.55" y="366.38" width="18.97" height="18.97"/>
      <rect class="st3" x="290.52" y="366.38" width="18.97" height="18.97"/>
      <rect class="st3" x="309.48" y="366.38" width="18.97" height="18.97"/>
      <rect class="st3" x="328.45" y="366.38" width="18.97" height="18.97"/>
      <rect class="st3" x="347.41" y="366.38" width="18.97" height="18.97"/>
      <path class="st3" d="M423.28,366.38h-18.97v12.45c0,1.8.64,3.34,1.91,4.61,1.27,1.27,2.81,1.91,4.61,1.91h12.45v-18.97Z"/>
      <rect class="st3" x="423.28" y="366.38" width="18.97" height="18.97"/>
      <path class="st3" d="M454.69,366.38h-12.45v18.97h12.45c1.8,0,3.34-.64,4.61-1.91,1.27-1.27,1.91-2.81,1.91-4.61v-5.93c0-1.8-.64-3.34-1.91-4.61-1.27-1.27-2.81-1.91-4.61-1.91Z"/>
      <path class="st3" d="M499.14,372.9c0-1.8-.64-3.34-1.91-4.61-1.27-1.27-2.81-1.91-4.61-1.91h-5.93c-1.8,0-3.34.64-4.61,1.91-1.27,1.27-1.91,2.81-1.91,4.61v5.93c0,.1.01.25.04.44h-.04v6.07h18.97v-6.07h-.04c.03-.2.04-.35.04-.44v-5.93Z"/>
      <rect class="st3" x="518.1" y="366.38" width="18.97" height="18.97"/>
      <path class="st3" d="M119.79,391.42h.04v-6.07h-18.97v6.07h.04c-.02.2-.04.35-.04.44v5.93c0,1.8.64,3.34,1.91,4.61,1.27,1.27,2.81,1.91,4.61,1.91h5.93c1.8,0,3.34-.64,4.61-1.91,1.27-1.27,1.91-2.81,1.91-4.61v-5.93c0-.1-.01-.25-.04-.44Z"/>
      <path class="st3" d="M214.62,391.42h.04v-6.07h-18.97v6.07h.04c-.02.2-.04.35-.04.44v5.93c0,1.8.64,3.34,1.91,4.61,1.27,1.27,2.81,1.91,4.61,1.91h5.93c1.8,0,3.34-.64,4.61-1.91,1.27-1.27,1.91-2.81,1.91-4.61v-5.93c0-.1-.01-.25-.04-.44Z"/>
      <path class="st3" d="M271.55,385.34h-18.97v12.45c0,1.8.64,3.34,1.91,4.61,1.27,1.27,2.81,1.91,4.61,1.91h12.45v-18.97Z"/>
      <rect class="st3" x="271.55" y="385.34" width="18.97" height="18.97"/>
      <rect class="st3" x="290.52" y="385.34" width="18.97" height="18.97"/>
      <rect class="st3" x="309.48" y="385.34" width="18.97" height="18.97"/>
      <rect class="st3" x="328.45" y="385.34" width="18.97" height="18.97"/>
      <rect class="st3" x="347.41" y="385.34" width="18.97" height="18.97"/>
      <path class="st3" d="M404.31,391.86c0-1.8-.64-3.34-1.91-4.61-1.27-1.27-2.81-1.91-4.61-1.91h-5.93c-1.8,0-3.34.64-4.61,1.91-1.27,1.27-1.91,2.81-1.91,4.61v5.93c0,.1.01.25.04.44h-.04v6.07h18.97v-6.07h-.04c.03-.2.04-.35.04-.44v-5.93Z"/>
      <rect class="st3" x="423.28" y="385.34" width="18.97" height="18.97"/>
      <rect class="st3" x="480.17" y="385.34" width="18.97" height="18.97"/>
      <rect class="st3" x="518.1" y="385.34" width="18.97" height="18.97"/>
      <path class="st3" d="M62.93,410.83v-6.52h-12.45c-1.8,0-3.34.64-4.61,1.91-1.27,1.27-1.91,2.81-1.91,4.61v5.93c0,1.8.64,3.34,1.91,4.61,1.27,1.27,2.81,1.91,4.61,1.91h12.45v-12.45Z"/>
      <path class="st3" d="M75.38,404.31h-12.45v18.97h12.45c1.8,0,3.34-.64,4.61-1.91,1.27-1.27,1.91-2.81,1.91-4.61v-5.93c0-1.8-.64-3.34-1.91-4.61-1.27-1.27-2.81-1.91-4.61-1.91Z"/>
      <path class="st3" d="M157.76,410.83v-6.52h-12.45c-1.8,0-3.34.64-4.61,1.91-1.27,1.27-1.91,2.81-1.91,4.61v5.93c0,1.8.64,3.34,1.91,4.61,1.27,1.27,2.81,1.91,4.61,1.91h12.45v-12.45Z"/>
      <rect class="st3" x="157.76" y="404.31" width="18.97" height="18.97"/>
      <path class="st3" d="M195.69,410.83c0-1.8-.64-3.34-1.91-4.61-1.27-1.27-2.81-1.91-4.61-1.91h-12.45v18.97h18.97v-12.45Z"/>
      <path class="st3" d="M233.62,416.76c0,1.8-.64,3.34-1.91,4.61-1.27,1.27-2.81,1.91-4.61,1.91h-5.93c-1.8,0-3.34-.64-4.61-1.91-1.27-1.27-1.91-2.81-1.91-4.61v-5.93c0-1.8.64-3.34,1.91-4.61,1.27-1.27,2.81-1.91,4.61-1.91h5.93c1.8,0,3.34.64,4.61,1.91,1.27,1.27,1.91,2.81,1.91,4.61v5.93Z"/>
      <path class="st3" d="M290.52,404.31h-18.97v12.45c0,1.8.64,3.34,1.91,4.61,1.27,1.27,2.81,1.91,4.61,1.91h12.45v-18.97Z"/>
      <rect class="st3" x="290.52" y="404.31" width="18.97" height="18.97"/>
      <rect class="st3" x="309.48" y="404.31" width="18.97" height="18.97"/>
      <rect class="st3" x="328.45" y="404.31" width="18.97" height="18.97"/>
      <rect class="st3" x="347.41" y="404.31" width="18.97" height="18.97"/>
      <path class="st3" d="M404.31,404.31h-18.97v12.45c0,1.8.64,3.34,1.91,4.61,1.27,1.27,2.81,1.91,4.61,1.91h12.45v-18.97Z"/>
      <rect class="st3" x="404.31" y="404.31" width="18.97" height="18.97"/>
      <rect class="st3" x="423.28" y="404.31" width="18.97" height="18.97"/>
      <rect class="st3" x="442.24" y="404.31" width="18.97" height="18.97"/>
      <rect class="st3" x="461.21" y="404.31" width="18.97" height="18.97"/>
      <rect class="st3" x="480.17" y="404.31" width="18.97" height="18.97"/>
      <rect class="st3" x="499.14" y="404.31" width="18.97" height="18.97"/>
      <rect class="st3" x="518.1" y="404.31" width="18.97" height="18.97"/>
      <rect class="st3" x="176.72" y="423.28" width="18.97" height="18.97"/>
      <path class="st3" d="M271.55,435.72c0,1.8-.64,3.34-1.91,4.61-1.27,1.27-2.81,1.91-4.61,1.91h-5.93c-1.8,0-3.34-.64-4.61-1.91-1.27-1.27-1.91-2.81-1.91-4.61v-5.93c0-1.8.64-3.34,1.91-4.61,1.27-1.27,2.81-1.91,4.61-1.91h5.93c1.8,0,3.34.64,4.61,1.91,1.27,1.27,1.91,2.81,1.91,4.61v5.93Z"/>
      <path class="st3" d="M366.38,423.28h-18.97v12.45c0,1.8.64,3.34,1.91,4.61,1.27,1.27,2.81,1.91,4.61,1.91h12.45v-18.97Z"/>
      <path class="st3" d="M385.34,429.8c0-1.8-.64-3.34-1.91-4.61-1.27-1.27-2.81-1.91-4.61-1.91h-12.45v18.97h18.97v-12.45Z"/>
      <rect class="st3" x="404.31" y="423.28" width="18.97" height="18.97"/>
      <rect class="st3" x="480.17" y="423.28" width="18.97" height="18.97"/>
      <rect class="st3" x="499.14" y="423.28" width="18.97" height="18.97"/>
      <rect class="st3" x="518.1" y="423.28" width="18.97" height="18.97"/>
      <rect class="st3" x="537.07" y="423.28" width="18.97" height="18.97"/>
      <path class="st3" d="M568.48,423.28h-12.45v18.97h12.45c1.8,0,3.34-.64,4.61-1.91,1.27-1.27,1.91-2.81,1.91-4.61v-5.93c0-1.8-.64-3.34-1.91-4.61-1.27-1.27-2.81-1.91-4.61-1.91Z"/>
      <rect class="st3" x="176.72" y="442.24" width="18.97" height="18.97"/>
      <path class="st3" d="M309.48,448.76c0-1.8-.64-3.34-1.91-4.61-1.27-1.27-2.81-1.91-4.61-1.91h-5.93c-1.8,0-3.34.64-4.61,1.91-1.27,1.27-1.91,2.81-1.91,4.61v5.93c0,.1.01.25.04.44h-.04v6.07h18.97v-6.07h-.04c.03-.2.04-.35.04-.44v-5.93Z"/>
      <path class="st3" d="M385.34,442.24h-18.97v12.45c0,1.8.64,3.34,1.91,4.61,1.27,1.27,2.81,1.91,4.61,1.91h12.45v-18.97Z"/>
      <rect class="st3" x="385.34" y="442.24" width="18.97" height="18.97"/>
      <rect class="st3" x="404.31" y="442.24" width="18.97" height="18.97"/>
      <path class="st3" d="M461.21,454.69c0,1.8-.64,3.34-1.91,4.61-1.27,1.27-2.81,1.91-4.61,1.91h-5.93c-1.8,0-3.34-.64-4.61-1.91-1.27-1.27-1.91-2.81-1.91-4.61v-5.93c0-1.8.64-3.34,1.91-4.61,1.27-1.27,2.81-1.91,4.61-1.91h5.93c1.8,0,3.34.64,4.61,1.91,1.27,1.27,1.91,2.81,1.91,4.61v5.93Z"/>
      <rect class="st3" x="480.17" y="442.24" width="18.97" height="18.97"/>
      <rect class="st3" x="499.14" y="442.24" width="18.97" height="18.97"/>
      <path class="st3" d="M556,448.32h.04v-6.07h-18.97v6.07h.04c-.02.2-.04.35-.04.44v5.93c0,1.8.64,3.34,1.91,4.61,1.27,1.27,2.81,1.91,4.61,1.91h5.93c1.8,0,3.34-.64,4.61-1.91,1.27-1.27,1.91-2.81,1.91-4.61v-5.93c0-.1-.01-.25-.04-.44Z"/>
      <path class="st3" d="M195.65,467.28h.04v-6.07h-18.97v6.07h.04c-.02.2-.04.35-.04.44v5.93c0,1.8.64,3.34,1.91,4.61,1.27,1.27,2.81,1.91,4.61,1.91h5.93c1.8,0,3.34-.64,4.61-1.91,1.27-1.27,1.91-2.81,1.91-4.61v-5.93c0-.1-.01-.25-.04-.44Z"/>
      <path class="st3" d="M233.62,467.73c0-1.8-.64-3.34-1.91-4.61-1.27-1.27-2.81-1.91-4.61-1.91h-5.93c-1.8,0-3.34.64-4.61,1.91-1.27,1.27-1.91,2.81-1.91,4.61v5.93c0,.1.01.25.04.44h-.04v6.07h18.97v-6.07h-.04c.03-.2.04-.35.04-.44v-5.93Z"/>
      <path class="st3" d="M290.52,467.73v-6.52h-12.45c-1.8,0-3.34.64-4.61,1.91-1.27,1.27-1.91,2.81-1.91,4.61v5.93c0,1.8.64,3.34,1.91,4.61,1.27,1.27,2.81,1.91,4.61,1.91h12.45v-12.45Z"/>
      <path class="st3" d="M309.48,461.21h-18.97v18.97h12.45c1.8,0,3.34-.64,4.61-1.91,1.27-1.27,1.91-2.81,1.91-4.61v-12.45Z"/>
      <rect class="st3" x="404.31" y="461.21" width="18.97" height="18.97"/>
      <rect class="st3" x="480.17" y="461.21" width="18.97" height="18.97"/>
      <path class="st3" d="M518.1,461.21h-18.97v18.97h12.45c1.8,0,3.34-.64,4.61-1.91,1.27-1.27,1.91-2.81,1.91-4.61v-12.45Z"/>
      <path class="st3" d="M575,473.65c0,1.8-.64,3.34-1.91,4.61-1.27,1.27-2.81,1.91-4.61,1.91h-5.93c-1.8,0-3.34-.64-4.61-1.91-1.27-1.27-1.91-2.81-1.91-4.61v-5.93c0-1.8.64-3.34,1.91-4.61,1.27-1.27,2.81-1.91,4.61-1.91h5.93c1.8,0,3.34.64,4.61,1.91,1.27,1.27,1.91,2.81,1.91,4.61v5.93Z"/>
      <path class="st3" d="M233.62,480.17h-18.97v12.45c0,1.8.64,3.34,1.91,4.61,1.27,1.27,2.81,1.91,4.61,1.91h12.45v-18.97Z"/>
      <rect class="st3" x="233.62" y="480.17" width="18.97" height="18.97"/>
      <path class="st3" d="M271.55,486.69c0-1.8-.64-3.34-1.91-4.61-1.27-1.27-2.81-1.91-4.61-1.91h-12.45v18.97h18.97v-12.45Z"/>
      <path class="st3" d="M328.45,486.69v-6.52h-12.45c-1.8,0-3.34.64-4.61,1.91-1.27,1.27-1.91,2.81-1.91,4.61v12.45h18.97v-12.45Z"/>
      <rect class="st3" x="328.45" y="480.17" width="18.97" height="18.97"/>
      <path class="st3" d="M359.86,480.17h-12.45v18.97h12.45c1.8,0,3.34-.64,4.61-1.91,1.27-1.27,1.91-2.81,1.91-4.61v-5.93c0-1.8-.64-3.34-1.91-4.61-1.27-1.27-2.81-1.91-4.61-1.91Z"/>
      <path class="st3" d="M423.28,480.17h-18.97v12.45c0,1.8.64,3.34,1.91,4.61,1.27,1.27,2.81,1.91,4.61,1.91h12.45v-18.97Z"/>
      <rect class="st3" x="423.28" y="480.17" width="18.97" height="18.97"/>
      <rect class="st3" x="442.24" y="480.17" width="18.97" height="18.97"/>
      <rect class="st3" x="461.21" y="480.17" width="18.97" height="18.97"/>
      <rect class="st3" x="480.17" y="480.17" width="18.97" height="18.97"/>
      <path class="st3" d="M537.07,486.69v-6.52h-12.45c-1.8,0-3.34.64-4.61,1.91-1.27,1.27-1.91,2.81-1.91,4.61v5.93c0,1.8.64,3.34,1.91,4.61,1.27,1.27,2.81,1.91,4.61,1.91h12.45v-12.45Z"/>
      <path class="st3" d="M549.52,480.17h-12.45v18.97h12.45c1.8,0,3.34-.64,4.61-1.91,1.27-1.27,1.91-2.81,1.91-4.61v-5.93c0-1.8-.64-3.34-1.91-4.61-1.27-1.27-2.81-1.91-4.61-1.91Z"/>
      <path class="st3" d="M195.69,505.66v-6.52h-12.45c-1.8,0-3.34.64-4.61,1.91-1.27,1.27-1.91,2.81-1.91,4.61v12.45h18.97v-12.45Z"/>
      <path class="st3" d="M208.14,499.14h-12.45v18.97h12.45c1.8,0,3.34-.64,4.61-1.91,1.27-1.27,1.91-2.81,1.91-4.61v-5.93c0-1.8-.64-3.34-1.91-4.61-1.27-1.27-2.81-1.91-4.61-1.91Z"/>
      <rect class="st3" x="252.59" y="499.14" width="18.97" height="18.97"/>
      <path class="st3" d="M328.45,499.14h-18.97v12.45c0,1.8.64,3.34,1.91,4.61,1.27,1.27,2.81,1.91,4.61,1.91h12.45v-18.97Z"/>
      <path class="st3" d="M347.41,499.14h-18.97v18.97h12.45c1.8,0,3.34-.64,4.61-1.91,1.27-1.27,1.91-2.81,1.91-4.61v-12.45Z"/>
      <rect class="st3" x="423.28" y="499.14" width="18.97" height="18.97"/>
      <rect class="st3" x="461.21" y="499.14" width="18.97" height="18.97"/>
      <rect class="st3" x="480.17" y="499.14" width="18.97" height="18.97"/>
      <path class="st3" d="M511.58,499.14h-12.45v18.97h12.45c1.8,0,3.34-.64,4.61-1.91,1.27-1.27,1.91-2.81,1.91-4.61v-5.93c0-1.8-.64-3.34-1.91-4.61-1.27-1.27-2.81-1.91-4.61-1.91Z"/>
      <path class="st3" d="M575,505.66c0-1.8-.64-3.34-1.91-4.61-1.27-1.27-2.81-1.91-4.61-1.91h-5.93c-1.8,0-3.34.64-4.61,1.91-1.27,1.27-1.91,2.81-1.91,4.61v5.93c0,.1.01.25.04.44h-.04v6.07h18.97v-6.07h-.04c.03-.2.04-.35.04-.44v-5.93Z"/>
      <path class="st3" d="M195.65,524.18h.04v-6.07h-18.97v6.07h.04c-.02.2-.04.35-.04.44v5.93c0,1.8.64,3.34,1.91,4.61,1.27,1.27,2.81,1.91,4.61,1.91h5.93c1.8,0,3.34-.64,4.61-1.91,1.27-1.27,1.91-2.81,1.91-4.61v-5.93c0-.1-.01-.25-.04-.44Z"/>
      <path class="st3" d="M271.55,518.1h-18.97v12.45c0,1.8.64,3.34,1.91,4.61,1.27,1.27,2.81,1.91,4.61,1.91h12.45v-18.97Z"/>
      <rect class="st3" x="271.55" y="518.1" width="18.97" height="18.97"/>
      <path class="st3" d="M302.96,518.1h-12.45v18.97h12.45c1.8,0,3.34-.64,4.61-1.91,1.27-1.27,1.91-2.81,1.91-4.61v-5.93c0-1.8-.64-3.34-1.91-4.61-1.27-1.27-2.81-1.91-4.61-1.91Z"/>
      <path class="st3" d="M366.38,524.62v-6.52h-12.45c-1.8,0-3.34.64-4.61,1.91-1.27,1.27-1.91,2.81-1.91,4.61v5.93c0,1.8.64,3.34,1.91,4.61,1.27,1.27,2.81,1.91,4.61,1.91h12.45v-12.45Z"/>
      <path class="st3" d="M385.34,524.62c0-1.8-.64-3.34-1.91-4.61-1.27-1.27-2.81-1.91-4.61-1.91h-12.45v18.97h18.97v-12.45Z"/>
      <path class="st3" d="M423.28,524.62v-6.52h-12.45c-1.8,0-3.34.64-4.61,1.91-1.27,1.27-1.91,2.81-1.91,4.61v12.45h18.97v-12.45Z"/>
      <rect class="st3" x="423.28" y="518.1" width="18.97" height="18.97"/>
      <path class="st3" d="M480.14,524.18h.04v-6.07h-18.97v6.07h.04c-.02.2-.04.35-.04.44v5.93c0,1.8.64,3.34,1.91,4.61,1.27,1.27,2.81,1.91,4.61,1.91h5.93c1.8,0,3.34-.64,4.61-1.91,1.27-1.27,1.91-2.81,1.91-4.61v-5.93c0-.1-.01-.25-.04-.44Z"/>
      <path class="st3" d="M537.07,530.55c0,1.8-.64,3.34-1.91,4.61-1.27,1.27-2.81,1.91-4.61,1.91h-5.93c-1.8,0-3.34-.64-4.61-1.91-1.27-1.27-1.91-2.81-1.91-4.61v-5.93c0-1.8.64-3.34,1.91-4.61,1.27-1.27,2.81-1.91,4.61-1.91h5.93c1.8,0,3.34.64,4.61,1.91,1.27,1.27,1.91,2.81,1.91,4.61v5.93Z"/>
      <path class="st3" d="M574.96,524.18h.04v-6.07h-18.97v6.07h.04c-.02.2-.04.35-.04.44v5.93c0,1.8.64,3.34,1.91,4.61,1.27,1.27,2.81,1.91,4.61,1.91h5.93c1.8,0,3.34-.64,4.61-1.91,1.27-1.27,1.91-2.81,1.91-4.61v-5.93c0-.1-.01-.25-.04-.44Z"/>
      <path class="st3" d="M214.66,543.59c0-1.8-.64-3.34-1.91-4.61-1.27-1.27-2.81-1.91-4.61-1.91h-5.93c-1.8,0-3.34.64-4.61,1.91-1.27,1.27-1.91,2.81-1.91,4.61v5.93c0,.1.01.25.04.44h-.04v6.07h18.97v-6.07h-.04c.03-.2.04-.35.04-.44v-5.93Z"/>
      <path class="st3" d="M290.48,543.14h.04v-6.07h-18.97v6.07h.04c-.02.2-.04.35-.04.44v5.93c0,1.8.64,3.34,1.91,4.61,1.27,1.27,2.81,1.91,4.61,1.91h5.93c1.8,0,3.34-.64,4.61-1.91,1.27-1.27,1.91-2.81,1.91-4.61v-5.93c0-.1-.01-.25-.04-.44Z"/>
      <path class="st3" d="M328.45,543.59v-6.52h-12.45c-1.8,0-3.34.64-4.61,1.91-1.27,1.27-1.91,2.81-1.91,4.61v5.93c0,1.8.64,3.34,1.91,4.61,1.27,1.27,2.81,1.91,4.61,1.91h12.45v-12.45Z"/>
      <path class="st3" d="M340.89,537.07h-12.45v18.97h12.45c1.8,0,3.34-.64,4.61-1.91,1.27-1.27,1.91-2.81,1.91-4.61v-5.93c0-1.8-.64-3.34-1.91-4.61-1.27-1.27-2.81-1.91-4.61-1.91Z"/>
      <rect class="st3" x="366.38" y="537.07" width="18.97" height="18.97"/>
      <rect class="st3" x="404.31" y="537.07" width="18.97" height="18.97"/>
      <path class="st3" d="M442.24,537.07h-18.97v18.97h12.45c1.8,0,3.34-.64,4.61-1.91,1.27-1.27,1.91-2.81,1.91-4.61v-12.45Z"/>
      <path class="st3" d="M518.1,543.59c0-1.8-.64-3.34-1.91-4.61-1.27-1.27-2.81-1.91-4.61-1.91h-5.93c-1.8,0-3.34.64-4.61,1.91-1.27,1.27-1.91,2.81-1.91,4.61v5.93c0,.1.01.25.04.44h-.04v6.07h18.97v-6.07h-.04c.03-.2.04-.35.04-.44v-5.93Z"/>
      <path class="st3" d="M556.03,543.59c0-1.8-.64-3.34-1.91-4.61-1.27-1.27-2.81-1.91-4.61-1.91h-5.93c-1.8,0-3.34.64-4.61,1.91-1.27,1.27-1.91,2.81-1.91,4.61v5.93c0,.1.01.25.04.44h-.04v6.07h18.97v-6.07h-.04c.03-.2.04-.35.04-.44v-5.93Z"/>
      <path class="st3" d="M195.69,562.55v-6.52h-12.45c-1.8,0-3.34.64-4.61,1.91-1.27,1.27-1.91,2.81-1.91,4.61v5.93c0,1.8.64,3.34,1.91,4.61,1.27,1.27,2.81,1.91,4.61,1.91h12.45v-12.45Z"/>
      <rect class="st3" x="195.69" y="556.03" width="18.97" height="18.97"/>
      <rect class="st3" x="214.66" y="556.03" width="18.97" height="18.97"/>
      <rect class="st3" x="233.62" y="556.03" width="18.97" height="18.97"/>
      <path class="st3" d="M265.03,556.03h-12.45v18.97h12.45c1.8,0,3.34-.64,4.61-1.91,1.27-1.27,1.91-2.81,1.91-4.61v-5.93c0-1.8-.64-3.34-1.91-4.61-1.27-1.27-2.81-1.91-4.61-1.91Z"/>
      <path class="st3" d="M309.48,568.48c0,1.8-.64,3.34-1.91,4.61-1.27,1.27-2.81,1.91-4.61,1.91h-5.93c-1.8,0-3.34-.64-4.61-1.91-1.27-1.27-1.91-2.81-1.91-4.61v-5.93c0-1.8.64-3.34,1.91-4.61,1.27-1.27,2.81-1.91,4.61-1.91h5.93c1.8,0,3.34.64,4.61,1.91,1.27,1.27,1.91,2.81,1.91,4.61v5.93Z"/>
      <path class="st3" d="M385.31,562.11h.04v-6.07h-18.97v6.07h.04c-.02.2-.04.35-.04.44v5.93c0,1.8.64,3.34,1.91,4.61,1.27,1.27,2.81,1.91,4.61,1.91h5.93c1.8,0,3.34-.64,4.61-1.91,1.27-1.27,1.91-2.81,1.91-4.61v-5.93c0-.1-.01-.25-.04-.44Z"/>
      <path class="st3" d="M423.24,562.11h.04v-6.07h-18.97v6.07h.04c-.02.2-.04.35-.04.44v5.93c0,1.8.64,3.34,1.91,4.61,1.27,1.27,2.81,1.91,4.61,1.91h5.93c1.8,0,3.34-.64,4.61-1.91,1.27-1.27,1.91-2.81,1.91-4.61v-5.93c0-.1-.01-.25-.04-.44Z"/>
      <path class="st3" d="M461.21,568.48c0,1.8-.64,3.34-1.91,4.61-1.27,1.27-2.81,1.91-4.61,1.91h-5.93c-1.8,0-3.34-.64-4.61-1.91-1.27-1.27-1.91-2.81-1.91-4.61v-5.93c0-1.8.64-3.34,1.91-4.61,1.27-1.27,2.81-1.91,4.61-1.91h5.93c1.8,0,3.34.64,4.61,1.91,1.27,1.27,1.91,2.81,1.91,4.61v5.93Z"/>
      <path class="st3" d="M518.07,562.11h.04v-6.07h-18.97v6.07h.04c-.02.2-.04.35-.04.44v5.93c0,1.8.64,3.34,1.91,4.61,1.27,1.27,2.81,1.91,4.61,1.91h5.93c1.8,0,3.34-.64,4.61-1.91,1.27-1.27,1.91-2.81,1.91-4.61v-5.93c0-.1-.01-.25-.04-.44Z"/>
      <path class="st3" d="M556,562.11h.04v-6.07h-18.97v6.07h.04c-.02.2-.04.35-.04.44v5.93c0,1.8.64,3.34,1.91,4.61,1.27,1.27,2.81,1.91,4.61,1.91h5.93c1.8,0,3.34-.64,4.61-1.91,1.27-1.27,1.91-2.81,1.91-4.61v-5.93c0-.1-.01-.25-.04-.44Z"/>
      <g>
        <path class="st1" d="M112.43,44.92h-42.11c-5.42,0-10.45,1.67-14.58,4.51-3.21,2.21-5.88,5.13-7.76,8.52-1.96,3.53-3.07,7.57-3.07,11.86v43.11c0,13.73,11.4,24.91,25.42,24.91h21.05s21.05,0,21.05,0c14.02,0,25.42-11.17,25.42-24.9v-43.11c0-13.73-11.4-24.89-25.41-24.89Z"/>
        <path class="st3" d="M112.43,25.01h-42.11c-20.52,0-37.91,13.56-43.47,32.09-.57,1.92-1.02,3.89-1.34,5.9-.34,2.22-.52,4.5-.52,6.81v43.11c0,24.72,20.34,44.82,45.33,44.82h21.05s21.05,0,21.05,0c24.99,0,45.33-20.1,45.33-44.82v-43.11c0-24.71-20.34-44.81-45.33-44.81ZM137.84,112.92c0,13.73-11.4,24.91-25.42,24.91h-21.05s-21.05,0-21.05,0c-14.02,0-25.42-11.17-25.42-24.9v-43.11c0-4.29,1.11-8.33,3.07-11.86,1.89-3.39,4.55-6.31,7.76-8.52,4.13-2.84,9.16-4.51,14.58-4.51h42.11c14.01,0,25.41,11.17,25.41,24.89v43.11Z"/>
      </g>
      <g>
        <path class="st1" d="M529.67,44.92h-42.11c-5.42,0-10.45,1.67-14.58,4.51-3.21,2.21-5.88,5.13-7.76,8.52-1.96,3.53-3.07,7.57-3.07,11.86v43.11c0,13.73,11.4,24.91,25.42,24.91h21.05s21.05,0,21.05,0c14.02,0,25.42-11.17,25.42-24.9v-43.11c0-13.73-11.4-24.89-25.41-24.89Z"/>
        <path class="st3" d="M529.67,25.01h-42.11c-20.52,0-37.91,13.56-43.47,32.09-.57,1.92-1.02,3.89-1.34,5.9-.34,2.22-.52,4.5-.52,6.81v43.11c0,24.72,20.34,44.82,45.33,44.82h21.05s21.05,0,21.05,0c24.99,0,45.33-20.1,45.33-44.82v-43.11c0-24.71-20.34-44.81-45.33-44.81ZM555.09,112.92c0,13.73-11.4,24.91-25.42,24.91h-21.05s-21.05,0-21.05,0c-14.02,0-25.42-11.17-25.42-24.9v-43.11c0-4.29,1.11-8.33,3.07-11.86,1.89-3.39,4.55-6.31,7.76-8.52,4.13-2.84,9.16-4.51,14.58-4.51h42.11c14.01,0,25.41,11.17,25.41,24.89v43.11Z"/>
      </g>
      <g>
        <path class="st1" d="M112.43,462.17h-42.11c-5.42,0-10.45,1.67-14.58,4.51-3.21,2.21-5.88,5.13-7.76,8.52-1.96,3.53-3.07,7.57-3.07,11.86v43.11c0,13.73,11.4,24.91,25.42,24.91h21.05s21.05,0,21.05,0c14.02,0,25.42-11.17,25.42-24.9v-43.11c0-13.73-11.4-24.89-25.41-24.89Z"/>
        <path class="st3" d="M112.43,442.25h-42.11c-20.52,0-37.91,13.56-43.47,32.09-.57,1.92-1.02,3.89-1.34,5.9-.34,2.22-.52,4.5-.52,6.81v43.11c0,24.72,20.34,44.82,45.33,44.82h21.05s21.05,0,21.05,0c24.99,0,45.33-20.1,45.33-44.82v-43.11c0-24.71-20.34-44.81-45.33-44.81ZM137.84,530.17c0,13.73-11.4,24.91-25.42,24.91h-21.05s-21.05,0-21.05,0c-14.02,0-25.42-11.17-25.42-24.9v-43.11c0-4.29,1.11-8.33,3.07-11.86,1.89-3.39,4.55-6.31,7.76-8.52,4.13-2.84,9.16-4.51,14.58-4.51h42.11c14.01,0,25.41,11.17,25.41,24.89v43.11Z"/>
      </g>
      <path class="st3" d="M78.49,119.83c-8.59,0-15.57-6.85-15.57-15.25v-26.4c0-2.63.68-5.1,1.88-7.26,1.15-2.08,2.79-3.87,4.76-5.22,2.53-1.74,5.61-2.76,8.93-2.76h25.79c8.58,0,15.56,6.84,15.56,15.24v26.4c0,8.41-6.98,15.25-15.56,15.25h-25.78Z"/>
      <path class="st3" d="M495.73,119.83c-8.59,0-15.57-6.85-15.57-15.25v-26.4c0-2.63.68-5.1,1.88-7.26,1.15-2.08,2.79-3.87,4.76-5.22,2.53-1.74,5.61-2.76,8.93-2.76h25.79c8.58,0,15.56,6.84,15.56,15.24v26.4c0,8.41-6.98,15.25-15.56,15.25h-25.78Z"/>
      <path class="st3" d="M78.49,537.07c-8.59,0-15.57-6.85-15.57-15.25v-26.4c0-2.63.68-5.1,1.88-7.26,1.15-2.08,2.79-3.87,4.76-5.22,2.53-1.74,5.61-2.76,8.93-2.76h25.79c8.58,0,15.56,6.84,15.56,15.24v26.4c0,8.41-6.98,15.25-15.56,15.25h-25.78Z"/>
    </g>
  </g>
  <g id="Rect">
    <g class="st6">
      <rect class="st4" x="-1.13" y="-1.13" width="602.26" height="602.26"/>
    </g>
  </g>
  <g id="Shield">
    <path class="st2" d="M309.42,255l31,15v30c0,20-12.5,37.5-31,45-18.5-7.5-31-25-31-45v-30l31-15Z"/>
  </g>
</svg>